<svg xmlns="http://www.w3.org/2000/svg" xmlns:xlink="http://www.w3.org/1999/xlink" id="Layer_1" x="0px" y="0px" width="297.323px" height="270.061px" viewBox="0 0 297.323 270.061" xml:space="preserve">
<g>
	<defs>
		<rect id="SVGID_1_" x="-272.284" y="-162.61" width="841.89" height="595.28"></rect>
	</defs>
	<clipPath id="SVGID_2_">
		<use xlink:href="#SVGID_1_"></use>
	</clipPath>
</g>
<g>
	<path fill="#426AB3" d="M53.573,237.281c-0.031,0.151-0.175,0.368-0.432,0.646c-2.231,2.36-4.842,3.775-7.833,4.244   c-3.058,0.479-5.331-0.144-6.817-1.865c-1.45-1.664-1.869-3.983-1.256-6.963c0.594-2.884,2.006-5.474,4.233-7.77   c2.326-2.401,4.95-3.833,7.872-4.29c3.176-0.498,5.472,0.056,6.887,1.66c0.153,0.179,0.214,0.348,0.18,0.509   c-0.036,0.181-0.516,0.902-1.436,2.166c-0.919,1.266-1.482,1.981-1.689,2.152c-0.094,0.089-0.198,0.141-0.316,0.158   c-0.049,0.009-0.255-0.143-0.619-0.453c-0.434-0.371-0.881-0.646-1.337-0.822c-0.699-0.258-1.461-0.323-2.295-0.192   c-1.442,0.227-2.703,0.929-3.78,2.109c-0.992,1.09-1.636,2.348-1.929,3.771c-0.297,1.442-0.149,2.589,0.444,3.442   c0.644,0.928,1.686,1.278,3.128,1.052c0.852-0.134,1.698-0.44,2.538-0.921c0.548-0.316,1.126-0.728,1.733-1.236   c0.506-0.428,0.784-0.646,0.832-0.653c0.099-0.016,0.186,0.021,0.263,0.11c0.121,0.146,0.426,0.672,0.913,1.578   C53.356,236.655,53.594,237.177,53.573,237.281"></path>
	<path fill="#426AB3" d="M62.718,230.671c-0.533,2.59-0.933,4.576-1.199,5.958c-0.045,0.218-0.107,0.59-0.187,1.117   c-0.069,0.479-0.133,0.852-0.187,1.116c-0.041,0.199-0.188,0.336-0.441,0.413c-0.457,0.146-1.259,0.309-2.405,0.487   c-1.178,0.185-1.919,0.264-2.227,0.239c-0.206-0.015-0.302-0.122-0.29-0.326c0.006-0.028,0.048-0.233,0.126-0.611   c0.174-0.845,0.445-2.109,0.812-3.798c0.366-1.687,0.635-2.948,0.807-3.782c0.821-3.983,1.2-5.802,1.138-5.453   c0.401-2.091,0.651-3.879,0.747-5.362c0.002-0.102,0.01-0.181,0.022-0.237c0.043-0.208,0.191-0.333,0.446-0.373l5.25-0.823   c0.245-0.038,0.338,0.044,0.277,0.246l-0.068,0.258C64.239,223.879,63.366,227.521,62.718,230.671"></path>
	<path fill="#426AB3" d="M82.646,223.32c-0.145,0.702-0.396,1.76-0.753,3.174c-0.358,1.415-0.609,2.473-0.754,3.176   c-0.14,0.684-0.327,1.704-0.558,3.062c-0.233,1.358-0.418,2.375-0.557,3.048c-0.053,0.256-0.209,0.437-0.468,0.541   c-0.391,0.152-1.19,0.325-2.396,0.514c-1.069,0.167-1.809,0.256-2.218,0.266c-0.181,0.001-0.275-0.095-0.282-0.287   c0.029-0.28,0.058-0.56,0.087-0.84c0.041-0.429,0.017-0.636-0.071-0.621c0.137-0.021-0.425,0.379-1.685,1.199   c-1.26,0.822-2.352,1.306-3.273,1.449c-2.598,0.407-3.903-0.483-3.917-2.677c0.001-1.019,0.208-2.529,0.62-4.531   c0.446-2.163,0.978-3.897,1.599-5.207c0.188-0.407,0.43-0.632,0.724-0.679c0.451-0.07,1.135-0.173,2.055-0.309   c0.919-0.134,1.604-0.236,2.056-0.308c0.304-0.047,0.43,0.052,0.379,0.299c-0.014,0.065-0.043,0.167-0.091,0.304   c-0.472,1.322-0.844,2.646-1.117,3.976c-0.34,1.649-0.519,2.771-0.536,3.36c-0.038,1.016,0.497,1.438,1.604,1.264   c0.432-0.067,0.938-0.326,1.52-0.776c0.58-0.447,0.922-0.874,1.023-1.275c0.093-0.354,0.592-2.736,1.5-7.146   c0.066-0.313,0.127-0.503,0.189-0.565c0.078-0.104,0.264-0.181,0.558-0.227c0.481-0.075,1.202-0.183,2.166-0.326   c0.964-0.142,1.686-0.25,2.166-0.325c0.294-0.047,0.451-0.001,0.471,0.133C82.69,223.056,82.676,223.168,82.646,223.32"></path>
	<path fill="#426AB3" d="M100.987,226.229c-0.41,1.991-1.341,3.748-2.793,5.27c-1.548,1.62-3.332,2.59-5.351,2.906   c-1.471,0.23-2.573,0.007-3.307-0.667l-0.159-0.058c-0.098,0.016-0.225,0.205-0.38,0.567c-0.156,0.365-0.297,0.576-0.422,0.633   c-0.176,0.073-1.579,0.315-4.206,0.728c-0.617,0.097-0.903,0.037-0.859-0.183c0.006-0.027,0.03-0.101,0.073-0.218   c0.508-1.539,1.196-4.428,2.069-8.669c0.834-4.05,1.413-7.551,1.737-10.503l0.018-0.153c0.031-0.151,0.2-0.262,0.508-0.328   c0.219-0.043,1.086-0.248,2.603-0.614c1.069-0.259,1.932-0.441,2.588-0.544c0.187-0.029,0.247,0.114,0.183,0.426   c-0.076,0.37-0.201,0.862-0.376,1.479c-0.212,0.758-0.349,1.257-0.408,1.495c-0.242,0.945-0.53,2.231-0.865,3.854   c-0.06,0.295-0.011,0.428,0.146,0.403l0.244-0.148c1.069-1.048,2.32-1.685,3.752-1.91c2.146-0.337,3.677,0.108,4.592,1.333   C101.221,222.46,101.426,224.094,100.987,226.229 M95.696,226.905c0.162-0.787,0.05-1.415-0.339-1.881   c-0.388-0.467-0.983-0.637-1.787-0.511c-0.823,0.129-1.529,0.503-2.116,1.122c-0.588,0.62-0.966,1.334-1.132,2.141   c-0.172,0.835-0.08,1.472,0.275,1.911c0.379,0.463,0.991,0.63,1.833,0.498c0.833-0.131,1.552-0.513,2.158-1.151   C95.157,228.44,95.526,227.73,95.696,226.905"></path>
	<path fill="#426AB3" d="M113.488,222.12c-0.047,0.229-0.198,0.362-0.453,0.401c-1.059,0.166-1.887,0.269-2.483,0.308   c-0.117,0.707-0.292,1.692-0.524,2.959c-0.102,0.539-0.25,1.472-0.447,2.797c-0.18,1.195-0.338,2.127-0.477,2.801   c-0.041,0.199-0.203,0.335-0.482,0.407c-0.342,0.089-1.18,0.239-2.512,0.447c-1.108,0.174-1.823,0.259-2.144,0.254   c-0.323-0.005-0.449-0.172-0.38-0.504l1.614-7.842c0.057-0.274-0.111-0.382-0.503-0.319c-0.069,0.011-0.181,0.033-0.334,0.065   c-0.154,0.034-0.266,0.056-0.334,0.066c-0.275,0.043-0.401-0.01-0.38-0.161c0.082-0.811,0.285-2.004,0.61-3.579   c0.073-0.351,0.302-0.593,0.69-0.728c0.339-0.081,0.683-0.157,1.03-0.23c0.107-0.751,0.205-1.34,0.292-1.767   c0.337-1.632,0.909-2.869,1.719-3.711c1.605-1.675,3.865-2.741,6.777-3.197c0.196-0.031,0.302,0.008,0.318,0.115   c-0.01,0.415-0.027,1.029-0.051,1.84c-0.007,0.075,0.003,0.329,0.027,0.767c0.016,0.336,0.004,0.601-0.035,0.789   c-0.047,0.229-0.426,0.431-1.135,0.605c-0.823,0.212-1.346,0.432-1.574,0.661c-0.393,0.392-0.693,1.086-0.897,2.081   c-0.065,0.313-0.103,0.604-0.109,0.87c0.275-0.044,0.702-0.117,1.285-0.229c0.582-0.11,1.02-0.187,1.314-0.233   c0.295-0.046,0.42,0.035,0.377,0.244c-0.091,0.445-0.225,1.116-0.399,2.012C113.714,221.004,113.58,221.675,113.488,222.12"></path>
	<path fill="#426AB3" d="M129.979,221.643c-0.445,2.162-1.491,4.024-3.136,5.586c-1.644,1.562-3.58,2.518-5.805,2.865   c-2.156,0.338-3.795-0.049-4.914-1.157c-1.118-1.109-1.463-2.709-1.033-4.795c0.453-2.201,1.488-4.091,3.103-5.671   c1.616-1.579,3.563-2.549,5.836-2.905c2.216-0.348,3.871,0.043,4.967,1.17S130.421,219.499,129.979,221.643 M125.155,222.398   c0.154-0.749,0.051-1.374-0.311-1.873c-0.362-0.498-0.926-0.687-1.691-0.566c-0.774,0.121-1.473,0.515-2.094,1.181   c-0.584,0.624-0.953,1.316-1.109,2.075c-0.158,0.767-0.06,1.391,0.298,1.867c0.379,0.51,0.956,0.703,1.73,0.582   c0.765-0.12,1.458-0.513,2.079-1.18C124.632,223.862,124.997,223.167,125.155,222.398"></path>
	<path fill="#426AB3" d="M147.11,218.957c-0.445,2.162-1.491,4.024-3.136,5.586c-1.645,1.563-3.58,2.518-5.805,2.866   c-2.156,0.338-3.795-0.049-4.914-1.158c-1.118-1.109-1.463-2.709-1.033-4.795c0.453-2.201,1.488-4.091,3.103-5.671   c1.616-1.579,3.562-2.548,5.836-2.905c2.216-0.347,3.87,0.044,4.967,1.17C147.224,215.178,147.552,216.814,147.11,218.957    M142.286,219.713c0.154-0.749,0.051-1.373-0.311-1.872c-0.362-0.498-0.926-0.688-1.691-0.567   c-0.774,0.122-1.473,0.515-2.094,1.182c-0.584,0.623-0.953,1.315-1.109,2.074c-0.158,0.767-0.06,1.391,0.298,1.867   c0.379,0.51,0.956,0.704,1.73,0.582c0.765-0.119,1.458-0.513,2.079-1.18C141.763,221.177,142.128,220.481,142.286,219.713"></path>
	<path fill="#426AB3" d="M159.349,219.778c-0.059,0.285-0.184,0.722-0.376,1.312c-0.192,0.591-0.316,1.021-0.373,1.291   c-0.056,0.271-0.12,0.448-0.194,0.533c-0.075,0.086-0.259,0.22-0.554,0.404c-1.402,0.872-2.875,1.428-4.413,1.669   c-2.833,0.444-4.034-0.382-3.604-2.479c0.129-0.625,0.349-1.569,0.657-2.835c0.306-1.265,0.524-2.21,0.654-2.836   c0.086-0.417-0.121-0.587-0.622-0.509l-0.191,0.031l-0.194,0.044c-0.372,0.059-0.531-0.041-0.479-0.297   c0.031-0.152,0.09-0.388,0.18-0.703c0.088-0.316,0.149-0.551,0.181-0.703c0.04-0.199,0.091-0.5,0.15-0.904s0.111-0.707,0.151-0.905   c0.039-0.19,0.374-0.344,1.005-0.461c0.354-0.064,0.565-0.189,0.633-0.375c0.133-0.368,0.27-0.94,0.411-1.716   c0.212-1.218,0.313-1.798,0.3-1.741c0.229-1.101,0.449-1.667,0.664-1.7c0.266-0.042,0.631-0.044,1.098-0.009   c0.533,0.036,0.905,0.048,1.117,0.033c0.486-0.013,1.225-0.041,2.209-0.085c0.241-0.02,0.349,0.042,0.319,0.185   c-0.079,0.379-0.229,0.958-0.451,1.736c-0.221,0.777-0.373,1.361-0.454,1.75c-0.095,0.465-0.001,0.676,0.283,0.631   c0.343-0.054,0.866-0.149,1.569-0.287c0.701-0.138,1.228-0.233,1.581-0.288c0.216-0.034,0.308,0.02,0.278,0.162   c-0.045,0.219-0.136,0.55-0.274,0.992c-0.139,0.444-0.231,0.776-0.276,0.994c-0.047,0.228-0.11,0.56-0.19,0.993   c-0.079,0.436-0.144,0.766-0.19,0.994c-0.041,0.2-0.203,0.321-0.488,0.366c-0.194,0.03-0.521,0.073-0.979,0.133   c-0.459,0.058-0.786,0.102-0.982,0.133l-1.102,0.173c-0.148,0.023-0.266,0.243-0.352,0.661c-0.047,0.229-0.116,0.564-0.208,1.01   c-0.084,0.454-0.147,0.79-0.192,1.009c-0.164,0.797-0.185,1.332-0.061,1.606c0.181,0.366,0.658,0.488,1.434,0.367   c0.244-0.039,0.606-0.148,1.085-0.329c0.478-0.181,0.81-0.285,0.997-0.314C159.311,219.482,159.392,219.569,159.349,219.778"></path>
	<path fill="#426AB3" d="M225.864,210.274c-0.03,0.152-0.176,0.367-0.432,0.646c-2.232,2.36-4.843,3.775-7.833,4.244   c-3.058,0.479-5.331-0.144-6.817-1.865c-1.449-1.663-1.868-3.984-1.256-6.963c0.594-2.883,2.005-5.475,4.233-7.77   c2.326-2.4,4.95-3.833,7.871-4.291c3.177-0.498,5.472,0.058,6.888,1.66c0.152,0.181,0.213,0.35,0.179,0.51   c-0.036,0.182-0.515,0.902-1.435,2.166c-0.919,1.266-1.482,1.982-1.689,2.152c-0.094,0.089-0.198,0.141-0.315,0.159   c-0.05,0.008-0.256-0.144-0.619-0.454c-0.434-0.372-0.881-0.646-1.338-0.823c-0.698-0.257-1.461-0.321-2.294-0.19   c-1.442,0.226-2.703,0.929-3.78,2.107c-0.992,1.091-1.636,2.35-1.929,3.772c-0.297,1.441-0.149,2.589,0.443,3.441   c0.645,0.928,1.687,1.278,3.128,1.053c0.853-0.135,1.698-0.441,2.537-0.921c0.549-0.316,1.127-0.729,1.734-1.236   c0.506-0.428,0.784-0.647,0.832-0.654c0.099-0.015,0.186,0.022,0.262,0.111c0.122,0.145,0.426,0.671,0.913,1.578   C225.647,209.647,225.885,210.171,225.864,210.274"></path>
	<path fill="#426AB3" d="M244.136,203.638c-0.149,0.73-0.33,1.81-0.538,3.238c-0.21,1.427-0.389,2.502-0.536,3.222   c-0.078,0.381-0.292,0.611-0.642,0.693c-1.232,0.276-2.635,0.538-4.203,0.784c-0.187,0.029-0.254-0.225-0.204-0.76   c0.048-0.536,0.027-0.802-0.058-0.797c-0.087,0.05-0.207,0.146-0.36,0.291c-1.317,1.243-2.604,1.964-3.858,2.159   c-1.913,0.301-3.346-0.182-4.299-1.446c-0.906-1.18-1.163-2.718-0.773-4.616c0.451-2.19,1.428-4.051,2.929-5.581   c1.561-1.584,3.448-2.55,5.664-2.897c1.538-0.24,2.646,0.091,3.323,0.994l0.089,0.056c0.089-0.015,0.236-0.261,0.444-0.738   c0.207-0.479,0.389-0.729,0.546-0.754c0.363-0.058,1.035-0.065,2.013-0.026c0.932,0.038,1.595,0.089,1.987,0.157   c0.136,0.034,0.194,0.098,0.174,0.193c-0.008,0.037-0.043,0.14-0.104,0.305C245.062,199.881,244.531,201.722,244.136,203.638    M239.382,204.465c0.166-0.806,0.041-1.431-0.374-1.876c-0.417-0.442-1.047-0.6-1.89-0.467c-0.843,0.132-1.579,0.499-2.205,1.103   c-0.628,0.603-1.023,1.313-1.191,2.128c-0.158,0.77-0.021,1.386,0.416,1.85c0.435,0.463,1.045,0.635,1.829,0.512   c0.833-0.131,1.569-0.501,2.207-1.11C238.813,205.994,239.214,205.281,239.382,204.465"></path>
	<path fill="#426AB3" d="M258.377,199.712c-0.075,0.37-0.324,0.588-0.747,0.653c-0.187,0.029-0.455,0.061-0.809,0.094   c-0.352,0.031-0.618,0.062-0.795,0.089c-0.813,0.128-1.393,0.338-1.737,0.631s-0.595,0.814-0.749,1.563   c-0.084,0.407-0.204,1.024-0.358,1.853c-0.157,0.829-0.278,1.446-0.362,1.853c-0.056,0.277-0.12,0.684-0.194,1.223   c-0.071,0.54-0.138,0.942-0.191,1.208c-0.047,0.228-0.235,0.38-0.564,0.461c-0.478,0.111-1.203,0.242-2.173,0.394   c-0.932,0.146-1.671,0.236-2.217,0.267c-0.317,0.012-0.446-0.119-0.39-0.395c0.156-0.758,0.396-1.895,0.717-3.41   c0.32-1.514,0.559-2.65,0.716-3.408c0.459-2.23,0.626-4.032,0.501-5.407l0.016-0.21c0.028-0.143,0.122-0.248,0.278-0.319   c0.552-0.142,1.363-0.37,2.432-0.683c1.611-0.538,2.441-0.812,2.489-0.819c0.177-0.027,0.227,0.255,0.153,0.845   c-0.074,0.589-0.049,0.874,0.081,0.854c-0.14,0.021,0.314-0.291,1.358-0.936c1.044-0.646,2.001-1.036,2.874-1.174   c0.549-0.086,0.8-0.016,0.753,0.212c-0.057,0.275-0.166,0.669-0.328,1.182c-0.17,0.55-0.283,0.943-0.343,1.183   c-0.056,0.275-0.127,0.639-0.212,1.094C258.481,199.164,258.415,199.531,258.377,199.712"></path>
	<path fill="#426AB3" d="M274.54,198.28c-0.198,0.959-0.628,1.553-1.293,1.786c-0.113,0.037-1.149,0.299-3.109,0.79   c-1.181,0.305-2.938,0.723-5.267,1.254c0.011,0.594,0.329,0.999,0.96,1.212c0.513,0.176,1.134,0.208,1.858,0.094   c0.872-0.137,1.797-0.502,2.774-1.095c0.419-0.287,0.838-0.572,1.257-0.859c0.186,0.063,0.433,0.492,0.739,1.288   c0.305,0.798,0.433,1.315,0.384,1.552c-0.013,0.066-0.109,0.188-0.287,0.361c-1.452,1.431-3.438,2.342-5.958,2.737   c-2.333,0.365-4.08,0.003-5.24-1.092c-1.194-1.107-1.561-2.779-1.101-5.02c0.45-2.18,1.474-4.072,3.075-5.673   c1.649-1.653,3.593-2.655,5.829-3.005c1.882-0.296,3.344,0.118,4.383,1.239C274.584,194.973,274.917,196.449,274.54,198.28    M269.57,198.219c0.121-0.588,0.013-1.069-0.326-1.45c-0.341-0.378-0.81-0.52-1.406-0.426c-0.618,0.098-1.181,0.429-1.686,0.993   c-0.469,0.524-0.768,1.099-0.896,1.724c-0.053,0.258,0.058,0.363,0.333,0.32c0.725-0.114,1.876-0.399,3.449-0.856   C269.372,198.424,269.549,198.323,269.57,198.219"></path>
	<path fill="#FBB034" d="M220.114,103.175c0.047-5.566-11.213-4.468-15.215-3.763c-2.223,0.392-8.26,4.347-9.4,9.885   c-1.502,6.413-2.941,12.973-4.343,19.579c-15.029,19.445-27.146,34.665-41.98,37.28c-8.449,1.489-14.059-1.969-13.292-10.774   c0.177-2.034,0.837-4.594,1.964-7.461c2.405,0.019,5.479-0.077,8.593-0.626c20.676-3.646,26.867-19.411,27.496-26.638   c0.512-5.871-1.797-16.701-10.714-15.231c-21.832,3.6-42.702,35.323-44.374,54.515c-0.846,9.712,1.702,18.155,8.853,24.011   c1.316-0.012,2.513,1.334,4.309,0.793c0,0,0.184,0.415,0.407,0.375l0.221-0.038c0,0-0.201-0.188-0.181-0.415l0.221-0.039   c0.851,0.296,1.68,0.814,3.015,0.58c-0.184-0.41-1.276-0.44-1.68-0.816c2.811,0.396,6.774,0.142,8.997-0.252   c0.04-0.451,0.02-0.226-1.315,0.009c0.707-0.565,0.668-0.116,1.374-0.684l-2.446,0.431c-2.668,0.472-5.538,0.754-7.16-0.738   c1.296,0.216,2.831,0.168,4.108,0.607l0.888-0.157c0.667-0.116,1.111-0.195,1.295,0.22c0.444-0.078,0.26-0.493,0.484-0.533   c0.667-0.117,1.96,0.102,2.628-0.017c1.558-0.274,2.93-0.964,4.709-1.277l-0.02,0.228c-0.02,0.228-0.241,0.266-0.241,0.266   c-0.019,0.227,0.425,0.148,0.425,0.148c10.896-1.922,26.65-16.929,35.501-28.05c-0.193,0.212,2.236-2.847,3.313-4.906l0.507-0.838   c-3.182,15.971-6.173,31.781-9.106,46.251c-5.198,24.486-9.893,48.212-11.959,71.924c-0.156,1.805,2.133,3.184,3.021,3.026   c0.244-0.266,0.688-0.344,0.767-1.249c0.039-0.452-0.165-0.639-0.145-0.863c0.02-0.227,0.02-0.227,0.262-0.49   c0,0,0.185,0.411,0.405,0.372l0.138-1.579c0.243-0.267-0.039,0.448,0.405,0.37c0.667-0.117,0.911-0.382,0.93-0.606   c0.04-0.452-0.145-0.864-0.104-1.315c0.667-0.119,0.589,0.784,0.771,1.198c0.021-0.227,0.523-0.983,0.744-1.021   c0,0,0.204,0.184,0.184,0.41l0.224-0.038c0.221-0.039,0.849,0.296,1.053,0.48c0.117-1.353,0.503-0.755,1.229-1.55   c-0.06,0.677,1.013,0.934,1.398,1.531c0.098-1.128,0.361-1.619,0.64-2.336l-0.019,0.226c0.223-0.039,0.464-0.304,0.503-0.755   l-0.444,0.078l0.02-0.225l0.02-0.227c0.244-0.267,0.244-0.267,0.444-0.079c0.204,0.188,0.165,0.636,0.146,0.864   c-0.039,0.453-0.282,0.717-0.321,1.168c0,0-0.021,0.227,0.183,0.414c0.1-1.129,0.302-0.944,0.582-1.661   c-0.201-0.188-0.201-0.188-0.181-0.412c0.039-0.452,0.078-0.905,0.338-1.392c0.244-0.268,0.244-0.268,0.467-0.307   c-0.02,0.228-0.243,0.267-0.243,0.267c0.224-0.039,0.026,2.219,0.007,2.443c0.665-0.118,0.379-1.847,1.349-2.906l-0.021,0.228   c0.222-0.039,0.464-0.306,0.687-0.344l-0.04,0.45l0.485-0.529c-0.525,0.98-0.099,1.129-0.585,1.659   c0.447-0.079,0.707-0.569,0.728-0.796c0.424,0.148-0.098,1.129,0.55,1.237c0.542-1.207,0.216-2.484,1.812-3.209   c-0.06,0.676,0.348,1.049,0.328,1.275l-0.02,0.226c5.185-4.249,5.964-8.168,6.396-13.132c5.106-28.471,11.497-61.616,17.54-88.249   c0.444-0.079,0.426,0.146,0.869,0.067l-0.02,0.227c-0.02,0.228,1.092,0.03,1.536-0.048l-0.706,0.569   c0.647,0.106,1.962,0.098,1.962,0.098c-0.02,0.227-0.243,0.266-0.243,0.266c0.648,0.109,0.629,0.333,2.852-0.059   c0.667-0.117,1.354-0.459,1.8-0.537l-0.021,0.224c0,0,0.224-0.04,0.203,0.186c15.256-4.244,28.729-18.181,30.087-33.764   C248.281,111.55,233.4,103.946,220.114,103.175 M151.978,121.417c2.621-2.464,6.155-5.311,9.71-5.938   c0.891-0.157,1.558-0.274,2.204-0.167c-3.03,9.649-18.777,19.542-22.328,22.616C143.795,132.42,147.823,126.373,151.978,121.417    M231.597,127.166c-0.865,9.936-8.376,23.263-21.494,25.576c0.452-5.19,5.459-24.972,7.712-38.264   C226.066,115.247,232.168,120.617,231.597,127.166"></path>
	<path fill="#FBB034" d="M292.527,92.319c1.498-0.221,2.767-0.343,3.853-0.401c0.99-0.081,1.377-2.141,0.284-2.541   c-3.404-1.034-8.64-1.472-12.865-0.874c-11.228,1.588-29.707,8.257-29.392,25.283c0.191,10.284,14.829,22.914,15.011,32.684   c0.077,4.189-2.383,8.329-8.249,8.438c-7.331,0.137-7.412-3.036-9.96-3.733c-0.205,0.227-0.628,0.301-0.837,0.336   c-0.843,0.149-1.482-0.31-2.115-0.198c-0.211,0.036-0.419,0.263-0.621,0.68c2.066,8.811,11.231,13.313,20.487,11.687   c8.206-1.441,18.837-8.276,18.583-21.989c-0.226-12.221-9.958-20.424-10.166-31.663C276.369,100.84,282.27,93.832,292.527,92.319"></path>
	<path fill="#FBB034" d="M133.246,99.601c1.206-0.212,2.96-2.145,3.967-2.322c-3.982-2.055-12.007-0.966-18.447,0.17   c0.803-4.684,2.643-9.878,3.289-17.295c0.172-1.975,0.33-3.789,0.057-5.201c0.46-0.732,0.503-1.225,0.531-1.556   c0.288-3.295-8.713-2.357-12.137-1.753c-3.624,0.639-7.721,2.173-9.431,5.882c-2.718,6.158-5.247,19.262-7.029,23.796   c-4.04,0.873-16.134,3.167-16.235,4.321c-0.33,3.791,7.607,3.689,13.044,2.731l1.409-0.249c-4.9,22.12-7.845,40.002-11.797,62.606   c-0.1,1.156-0.417,2.508-0.518,3.662c-0.33,3.79-0.645,16.502,0.563,16.289c0.203-0.036,0.258-2.966,0.863-3.073   c0.804-0.142,0.374,2.531,1.553,2.647c0.1-1.153,0.172-1.977,0.833-2.743c0,0,0.189,4.672,0.993,4.53   c-0.014,0.163,0.532-3.825,0.906-3.565c0.373,0.256,0.361,4.965,1.367,4.787c-0.489-1.212-0.2-2.237-0.072-3.719   c0.374,0.26,1.496,3.307,2.114,3.034c0.029-0.331,0.257-0.692,0.286-1.023c0.173,0.295,0.749,0.516,0.764,0.352l-0.302-1.082   c1.206-0.213,0.516,0.883,1.869,1.293c-0.115-0.954-0.273-1.412-0.172-2.565c0.058-0.659,0.474-0.896,0.688-1.097   c-0.172,1.979,1.483,3.473,2.475,3.458c0.072-0.822,0.374-2.012,0.475-3.167c0.675,1.343,0.748,2.79,0.962,2.591   c0.044-0.495,0.488-1.061,0.748-1.756c7.617-30.55,13.595-53.672,20.351-85.693c2.444-0.758,13.76-3.238,16.78-3.771   C133.835,99.658,133.246,99.601,133.246,99.601"></path>
	<path fill="#FBB034" d="M20.184,47.896c3.42-1.365,5.094-6.029,3.74-10.418c-1.355-4.39-5.225-6.842-8.644-5.478   c-3.42,1.365-5.094,6.03-3.74,10.419C12.894,46.809,16.765,49.261,20.184,47.896"></path>
	<path fill="#FBB034" d="M38.326,36.322c4.569-1.015,7.625-6.537,6.825-12.333c-0.801-5.797-5.153-9.674-9.722-8.66   c-4.57,1.015-7.625,6.537-6.825,12.334S33.757,37.337,38.326,36.322"></path>
	<path fill="#FBB034" d="M61.19,28.774c5.149-0.323,9.46-5.957,9.629-12.583C70.987,9.564,66.95,4.454,61.8,4.776   c-5.15,0.323-9.461,5.957-9.629,12.583C52.002,23.986,56.041,29.097,61.19,28.774"></path>
	<path fill="#FBB034" d="M8.225,61.308c2.62-1.406,3.514-5.191,1.999-8.454c-1.516-3.263-4.868-4.77-7.488-3.363   c-2.619,1.405-3.513,5.191-1.998,8.454C2.252,61.208,5.605,62.713,8.225,61.308"></path>
	<path fill="#FBB034" d="M87.423,27.354c5.596,1.79,12.544-2.797,15.519-10.244c2.974-7.447,0.848-14.935-4.748-16.724   c-5.597-1.789-12.545,2.798-15.519,10.244C79.701,18.078,81.826,25.566,87.423,27.354"></path>
	<path fill="#FBB034" d="M96.58,46.168c-0.213-0.259-0.919-0.736-1.546-1.058c-0.788-0.404-6.801-3.26-17.286-3.26   c-41.651,0-71.031,26.186-71.031,48.634c0,12.915,16.84,29.968,18.804,32.242c13.747,16.647,27.991,36.202,27.991,46.428   c0,10.225-8.323,18.589-18.59,18.589c-10.545,0-16.662-8.579-18.806-11.896c-0.614-0.958-1.432-2.152-2.01-3.202   c-0.247-0.061-0.485-0.134-0.674-0.265c0.376,1.185,0.316,1.792,0.335,2.639l-0.076-0.238c-0.21,0.134-0.341,0.504-0.191,0.978   l0.417-0.266l0.075,0.235l0.076,0.237c-0.135,0.372-0.135,0.372-0.417,0.268c-0.286-0.105-0.435-0.575-0.511-0.814   c-0.151-0.476-0.016-0.846-0.166-1.319c0,0-0.076-0.238-0.362-0.343c0.377,1.187,0.092,1.084,0.111,1.93   c0.283,0.105,0.283,0.105,0.357,0.341c0.151,0.474,0.302,0.95,0.244,1.554c-0.134,0.373-0.134,0.373-0.344,0.506   c-0.075-0.237,0.135-0.372,0.135-0.372c-0.21,0.135-0.963-2.236-1.037-2.473c-0.625,0.399,0.394,2.03-0.142,3.512l-0.075-0.236   c-0.208,0.132-0.782-0.084-0.55,0.637c0.234,0.721,6.253,21.743,26.181,21.743c23.208,0,34.167-17.624,34.729-33.063   c0.766-21.047-2.46-27.643-13.244-44.472c-14.336-22.375-24.97-30.258-25.231-42.272C33.13,52.763,65.224,48.355,84.517,49.14   l0.002,0.009c1.245,0.05,2.318,0.112,3.253,0.18c1,0.075,1.948,0.164,2.84,0.262c2.039,0.236,2.938,0.453,3.578,0.45   c0.304-0.002,0.776-0.091,0.565-0.22c-0.425-0.258-0.851-0.518-1.204-1.011c-0.144-0.37-0.144-0.37-0.074-0.608   c0.214,0.13,0.144,0.369,0.144,0.369c0.07-0.239,2.195,1.055,2.406,1.184c0.209-0.712-1.631-1.272-2.2-2.742l0.213,0.13   c0.07-0.236-0.074-0.605-0.004-0.842l0.424,0.259l-0.284-0.736c0.709,0.995,1.063,0.647,1.347,1.384   c0.14-0.478-0.215-0.973-0.428-1.103C95.447,45.76,96.157,46.752,96.58,46.168"></path>
</g>
<rect x="-272.284" y="-162.61" fill="none" width="841.89" height="595.28"></rect>
</svg>